<?xml version="1.0" encoding="utf-8" standalone="no"?>
<!DOCTYPE svg PUBLIC "-//W3C//DTD SVG 1.1//EN"
  "http://www.w3.org/Graphics/SVG/1.1/DTD/svg11.dtd">
<svg xmlns:xlink="http://www.w3.org/1999/xlink" width="704.1775pt" height="488.253437pt" viewBox="0 0 704.1775 488.253437" xmlns="http://www.w3.org/2000/svg" version="1.1">
 <metadata>
  <rdf:RDF xmlns:dc="http://purl.org/dc/elements/1.1/" xmlns:cc="http://creativecommons.org/ns#" xmlns:rdf="http://www.w3.org/1999/02/22-rdf-syntax-ns#">
   <cc:Work>
    <dc:type rdf:resource="http://purl.org/dc/dcmitype/StillImage"/>
    <dc:date>2024-05-24T09:53:54.364271</dc:date>
    <dc:format>image/svg+xml</dc:format>
    <dc:creator>
     <cc:Agent>
      <dc:title>Matplotlib v3.7.5, https://matplotlib.org/</dc:title>
     </cc:Agent>
    </dc:creator>
   </cc:Work>
  </rdf:RDF>
 </metadata>
 <defs>
  <style type="text/css">*{stroke-linejoin: round; stroke-linecap: butt}</style>
 </defs>
 <g id="figure_1">
  <g id="patch_1">
   <path d="M 0 488.253437 
L 704.1775 488.253437 
L 704.1775 0 
L 0 0 
z
" style="fill: #ffffff"/>
  </g>
  <g id="axes_1">
   <g id="patch_2">
    <path d="M 49.965 443.32 
L 696.9775 443.32 
L 696.9775 7.2 
L 49.965 7.2 
z
" style="fill: #ffffff"/>
   </g>
   <g id="matplotlib.axis_1">
    <g id="xtick_1">
     <g id="line2d_1">
      <defs>
       <path id="m5d5b833757" d="M 0 0 
L 0 3.5 
" style="stroke: #000000; stroke-width: 0.8"/>
      </defs>
      <g>
       <use xlink:href="#m5d5b833757" x="85.910139" y="443.32" style="stroke: #000000; stroke-width: 0.8"/>
      </g>
     </g>
     <g id="text_1">
      <!-- FCN -->
      <g transform="translate(72.292951 460.04125) scale(0.14 -0.14)">
       <defs>
        <path id="TimesNewRomanPSMT-46" d="M 1309 4006 
L 1309 2341 
L 2081 2341 
Q 2347 2341 2470 2458 
Q 2594 2575 2634 2922 
L 2750 2922 
L 2750 1488 
L 2634 1488 
Q 2631 1734 2570 1850 
Q 2509 1966 2401 2023 
Q 2294 2081 2081 2081 
L 1309 2081 
L 1309 750 
Q 1309 428 1350 325 
Q 1381 247 1481 191 
Q 1619 116 1769 116 
L 1922 116 
L 1922 0 
L 103 0 
L 103 116 
L 253 116 
Q 516 116 634 269 
Q 709 369 709 750 
L 709 3488 
Q 709 3809 669 3913 
Q 638 3991 541 4047 
Q 406 4122 253 4122 
L 103 4122 
L 103 4238 
L 3256 4238 
L 3297 3306 
L 3188 3306 
Q 3106 3603 2998 3742 
Q 2891 3881 2733 3943 
Q 2575 4006 2244 4006 
L 1309 4006 
z
" transform="scale(0.015625)"/>
        <path id="TimesNewRomanPSMT-43" d="M 3853 4334 
L 3950 2894 
L 3853 2894 
Q 3659 3541 3300 3825 
Q 2941 4109 2438 4109 
Q 2016 4109 1675 3895 
Q 1334 3681 1139 3212 
Q 944 2744 944 2047 
Q 944 1472 1128 1050 
Q 1313 628 1683 403 
Q 2053 178 2528 178 
Q 2941 178 3256 354 
Q 3572 531 3950 1056 
L 4047 994 
Q 3728 428 3303 165 
Q 2878 -97 2294 -97 
Q 1241 -97 663 684 
Q 231 1266 231 2053 
Q 231 2688 515 3219 
Q 800 3750 1298 4042 
Q 1797 4334 2388 4334 
Q 2847 4334 3294 4109 
Q 3425 4041 3481 4041 
Q 3566 4041 3628 4100 
Q 3709 4184 3744 4334 
L 3853 4334 
z
" transform="scale(0.015625)"/>
        <path id="TimesNewRomanPSMT-4e" d="M -84 4238 
L 1066 4238 
L 3656 1059 
L 3656 3503 
Q 3656 3894 3569 3991 
Q 3453 4122 3203 4122 
L 3056 4122 
L 3056 4238 
L 4531 4238 
L 4531 4122 
L 4381 4122 
Q 4113 4122 4000 3959 
Q 3931 3859 3931 3503 
L 3931 -69 
L 3819 -69 
L 1025 3344 
L 1025 734 
Q 1025 344 1109 247 
Q 1228 116 1475 116 
L 1625 116 
L 1625 0 
L 150 0 
L 150 116 
L 297 116 
Q 569 116 681 278 
Q 750 378 750 734 
L 750 3681 
Q 566 3897 470 3965 
Q 375 4034 191 4094 
Q 100 4122 -84 4122 
L -84 4238 
z
" transform="scale(0.015625)"/>
       </defs>
       <use xlink:href="#TimesNewRomanPSMT-46"/>
       <use xlink:href="#TimesNewRomanPSMT-43" x="55.615234"/>
       <use xlink:href="#TimesNewRomanPSMT-4e" x="122.314453"/>
      </g>
     </g>
    </g>
    <g id="xtick_2">
     <g id="line2d_2">
      <g>
       <use xlink:href="#m5d5b833757" x="157.800417" y="443.32" style="stroke: #000000; stroke-width: 0.8"/>
      </g>
     </g>
     <g id="text_2">
      <!-- ResNet -->
      <g transform="translate(137.191979 460.04125) scale(0.14 -0.14)">
       <defs>
        <path id="TimesNewRomanPSMT-52" d="M 4325 0 
L 3194 0 
L 1759 1981 
Q 1600 1975 1500 1975 
Q 1459 1975 1412 1976 
Q 1366 1978 1316 1981 
L 1316 750 
Q 1316 350 1403 253 
Q 1522 116 1759 116 
L 1925 116 
L 1925 0 
L 109 0 
L 109 116 
L 269 116 
Q 538 116 653 291 
Q 719 388 719 750 
L 719 3488 
Q 719 3888 631 3984 
Q 509 4122 269 4122 
L 109 4122 
L 109 4238 
L 1653 4238 
Q 2328 4238 2648 4139 
Q 2969 4041 3192 3777 
Q 3416 3513 3416 3147 
Q 3416 2756 3161 2468 
Q 2906 2181 2372 2063 
L 3247 847 
Q 3547 428 3762 290 
Q 3978 153 4325 116 
L 4325 0 
z
M 1316 2178 
Q 1375 2178 1419 2176 
Q 1463 2175 1491 2175 
Q 2097 2175 2405 2437 
Q 2713 2700 2713 3106 
Q 2713 3503 2464 3751 
Q 2216 4000 1806 4000 
Q 1625 4000 1316 3941 
L 1316 2178 
z
" transform="scale(0.015625)"/>
        <path id="TimesNewRomanPSMT-65" d="M 681 1784 
Q 678 1147 991 784 
Q 1303 422 1725 422 
Q 2006 422 2214 576 
Q 2422 731 2563 1106 
L 2659 1044 
Q 2594 616 2278 264 
Q 1963 -88 1488 -88 
Q 972 -88 605 314 
Q 238 716 238 1394 
Q 238 2128 614 2539 
Q 991 2950 1559 2950 
Q 2041 2950 2350 2633 
Q 2659 2316 2659 1784 
L 681 1784 
z
M 681 1966 
L 2006 1966 
Q 1991 2241 1941 2353 
Q 1863 2528 1708 2628 
Q 1553 2728 1384 2728 
Q 1125 2728 920 2526 
Q 716 2325 681 1966 
z
" transform="scale(0.015625)"/>
        <path id="TimesNewRomanPSMT-73" d="M 2050 2947 
L 2050 1972 
L 1947 1972 
Q 1828 2431 1642 2597 
Q 1456 2763 1169 2763 
Q 950 2763 815 2647 
Q 681 2531 681 2391 
Q 681 2216 781 2091 
Q 878 1963 1175 1819 
L 1631 1597 
Q 2266 1288 2266 781 
Q 2266 391 1970 151 
Q 1675 -88 1309 -88 
Q 1047 -88 709 6 
Q 606 38 541 38 
Q 469 38 428 -44 
L 325 -44 
L 325 978 
L 428 978 
Q 516 541 762 319 
Q 1009 97 1316 97 
Q 1531 97 1667 223 
Q 1803 350 1803 528 
Q 1803 744 1651 891 
Q 1500 1038 1047 1263 
Q 594 1488 453 1669 
Q 313 1847 313 2119 
Q 313 2472 555 2709 
Q 797 2947 1181 2947 
Q 1350 2947 1591 2875 
Q 1750 2828 1803 2828 
Q 1853 2828 1881 2850 
Q 1909 2872 1947 2947 
L 2050 2947 
z
" transform="scale(0.015625)"/>
        <path id="TimesNewRomanPSMT-74" d="M 1031 3803 
L 1031 2863 
L 1700 2863 
L 1700 2644 
L 1031 2644 
L 1031 788 
Q 1031 509 1111 412 
Q 1191 316 1316 316 
Q 1419 316 1516 380 
Q 1613 444 1666 569 
L 1788 569 
Q 1678 263 1478 108 
Q 1278 -47 1066 -47 
Q 922 -47 784 33 
Q 647 113 581 261 
Q 516 409 516 719 
L 516 2644 
L 63 2644 
L 63 2747 
Q 234 2816 414 2980 
Q 594 3144 734 3369 
Q 806 3488 934 3803 
L 1031 3803 
z
" transform="scale(0.015625)"/>
       </defs>
       <use xlink:href="#TimesNewRomanPSMT-52"/>
       <use xlink:href="#TimesNewRomanPSMT-65" x="66.699219"/>
       <use xlink:href="#TimesNewRomanPSMT-73" x="111.083984"/>
       <use xlink:href="#TimesNewRomanPSMT-4e" x="150"/>
       <use xlink:href="#TimesNewRomanPSMT-65" x="222.216797"/>
       <use xlink:href="#TimesNewRomanPSMT-74" x="266.601562"/>
      </g>
     </g>
    </g>
    <g id="xtick_3">
     <g id="line2d_3">
      <g>
       <use xlink:href="#m5d5b833757" x="229.690694" y="443.32" style="stroke: #000000; stroke-width: 0.8"/>
      </g>
     </g>
     <g id="text_3">
      <!-- Inception -->
      <g transform="translate(203.255851 460.04125) scale(0.14 -0.14)">
       <defs>
        <path id="TimesNewRomanPSMT-49" d="M 1975 116 
L 1975 0 
L 159 0 
L 159 116 
L 309 116 
Q 572 116 691 269 
Q 766 369 766 750 
L 766 3488 
Q 766 3809 725 3913 
Q 694 3991 597 4047 
Q 459 4122 309 4122 
L 159 4122 
L 159 4238 
L 1975 4238 
L 1975 4122 
L 1822 4122 
Q 1563 4122 1444 3969 
Q 1366 3869 1366 3488 
L 1366 750 
Q 1366 428 1406 325 
Q 1438 247 1538 191 
Q 1672 116 1822 116 
L 1975 116 
z
" transform="scale(0.015625)"/>
        <path id="TimesNewRomanPSMT-6e" d="M 1034 2341 
Q 1538 2947 1994 2947 
Q 2228 2947 2397 2830 
Q 2566 2713 2666 2444 
Q 2734 2256 2734 1869 
L 2734 647 
Q 2734 375 2778 278 
Q 2813 200 2889 156 
Q 2966 113 3172 113 
L 3172 0 
L 1756 0 
L 1756 113 
L 1816 113 
Q 2016 113 2095 173 
Q 2175 234 2206 353 
Q 2219 400 2219 647 
L 2219 1819 
Q 2219 2209 2117 2386 
Q 2016 2563 1775 2563 
Q 1403 2563 1034 2156 
L 1034 647 
Q 1034 356 1069 288 
Q 1113 197 1189 155 
Q 1266 113 1500 113 
L 1500 0 
L 84 0 
L 84 113 
L 147 113 
Q 366 113 442 223 
Q 519 334 519 647 
L 519 1709 
Q 519 2225 495 2337 
Q 472 2450 423 2490 
Q 375 2531 294 2531 
Q 206 2531 84 2484 
L 38 2597 
L 900 2947 
L 1034 2947 
L 1034 2341 
z
" transform="scale(0.015625)"/>
        <path id="TimesNewRomanPSMT-63" d="M 2631 1088 
Q 2516 522 2178 217 
Q 1841 -88 1431 -88 
Q 944 -88 581 321 
Q 219 731 219 1428 
Q 219 2103 620 2525 
Q 1022 2947 1584 2947 
Q 2006 2947 2278 2723 
Q 2550 2500 2550 2259 
Q 2550 2141 2473 2067 
Q 2397 1994 2259 1994 
Q 2075 1994 1981 2113 
Q 1928 2178 1911 2362 
Q 1894 2547 1784 2644 
Q 1675 2738 1481 2738 
Q 1169 2738 978 2506 
Q 725 2200 725 1697 
Q 725 1184 976 792 
Q 1228 400 1656 400 
Q 1963 400 2206 609 
Q 2378 753 2541 1131 
L 2631 1088 
z
" transform="scale(0.015625)"/>
        <path id="TimesNewRomanPSMT-70" d="M -6 2578 
L 875 2934 
L 994 2934 
L 994 2266 
Q 1216 2644 1439 2795 
Q 1663 2947 1909 2947 
Q 2341 2947 2628 2609 
Q 2981 2197 2981 1534 
Q 2981 794 2556 309 
Q 2206 -88 1675 -88 
Q 1444 -88 1275 -22 
Q 1150 25 994 166 
L 994 -706 
Q 994 -1000 1030 -1079 
Q 1066 -1159 1155 -1206 
Q 1244 -1253 1478 -1253 
L 1478 -1369 
L -22 -1369 
L -22 -1253 
L 56 -1253 
Q 228 -1256 350 -1188 
Q 409 -1153 442 -1076 
Q 475 -1000 475 -688 
L 475 2019 
Q 475 2297 450 2372 
Q 425 2447 370 2484 
Q 316 2522 222 2522 
Q 147 2522 31 2478 
L -6 2578 
z
M 994 2081 
L 994 1013 
Q 994 666 1022 556 
Q 1066 375 1236 237 
Q 1406 100 1666 100 
Q 1978 100 2172 344 
Q 2425 663 2425 1241 
Q 2425 1897 2138 2250 
Q 1938 2494 1663 2494 
Q 1513 2494 1366 2419 
Q 1253 2363 994 2081 
z
" transform="scale(0.015625)"/>
        <path id="TimesNewRomanPSMT-69" d="M 928 4444 
Q 1059 4444 1151 4351 
Q 1244 4259 1244 4128 
Q 1244 3997 1151 3903 
Q 1059 3809 928 3809 
Q 797 3809 703 3903 
Q 609 3997 609 4128 
Q 609 4259 701 4351 
Q 794 4444 928 4444 
z
M 1188 2947 
L 1188 647 
Q 1188 378 1227 289 
Q 1266 200 1342 156 
Q 1419 113 1622 113 
L 1622 0 
L 231 0 
L 231 113 
Q 441 113 512 153 
Q 584 194 626 287 
Q 669 381 669 647 
L 669 1750 
Q 669 2216 641 2353 
Q 619 2453 572 2492 
Q 525 2531 444 2531 
Q 356 2531 231 2484 
L 188 2597 
L 1050 2947 
L 1188 2947 
z
" transform="scale(0.015625)"/>
        <path id="TimesNewRomanPSMT-6f" d="M 1600 2947 
Q 2250 2947 2644 2453 
Q 2978 2031 2978 1484 
Q 2978 1100 2793 706 
Q 2609 313 2286 112 
Q 1963 -88 1566 -88 
Q 919 -88 538 428 
Q 216 863 216 1403 
Q 216 1797 411 2186 
Q 606 2575 925 2761 
Q 1244 2947 1600 2947 
z
M 1503 2744 
Q 1338 2744 1170 2645 
Q 1003 2547 900 2300 
Q 797 2053 797 1666 
Q 797 1041 1045 587 
Q 1294 134 1700 134 
Q 2003 134 2200 384 
Q 2397 634 2397 1244 
Q 2397 2006 2069 2444 
Q 1847 2744 1503 2744 
z
" transform="scale(0.015625)"/>
       </defs>
       <use xlink:href="#TimesNewRomanPSMT-49"/>
       <use xlink:href="#TimesNewRomanPSMT-6e" x="33.300781"/>
       <use xlink:href="#TimesNewRomanPSMT-63" x="83.300781"/>
       <use xlink:href="#TimesNewRomanPSMT-65" x="127.685547"/>
       <use xlink:href="#TimesNewRomanPSMT-70" x="172.070312"/>
       <use xlink:href="#TimesNewRomanPSMT-74" x="222.070312"/>
       <use xlink:href="#TimesNewRomanPSMT-69" x="249.853516"/>
       <use xlink:href="#TimesNewRomanPSMT-6f" x="277.636719"/>
       <use xlink:href="#TimesNewRomanPSMT-6e" x="327.636719"/>
      </g>
     </g>
    </g>
    <g id="xtick_4">
     <g id="line2d_4">
      <g>
       <use xlink:href="#m5d5b833757" x="301.580972" y="443.32" style="stroke: #000000; stroke-width: 0.8"/>
      </g>
     </g>
     <g id="text_4">
      <!-- InceptionTime -->
      <g transform="translate(260.618941 460.04125) scale(0.14 -0.14)">
       <defs>
        <path id="TimesNewRomanPSMT-54" d="M 3703 4238 
L 3750 3244 
L 3631 3244 
Q 3597 3506 3538 3619 
Q 3441 3800 3280 3886 
Q 3119 3972 2856 3972 
L 2259 3972 
L 2259 734 
Q 2259 344 2344 247 
Q 2463 116 2709 116 
L 2856 116 
L 2856 0 
L 1059 0 
L 1059 116 
L 1209 116 
Q 1478 116 1591 278 
Q 1659 378 1659 734 
L 1659 3972 
L 1150 3972 
Q 853 3972 728 3928 
Q 566 3869 450 3700 
Q 334 3531 313 3244 
L 194 3244 
L 244 4238 
L 3703 4238 
z
" transform="scale(0.015625)"/>
        <path id="TimesNewRomanPSMT-6d" d="M 1050 2338 
Q 1363 2650 1419 2697 
Q 1559 2816 1721 2881 
Q 1884 2947 2044 2947 
Q 2313 2947 2506 2790 
Q 2700 2634 2766 2338 
Q 3088 2713 3309 2830 
Q 3531 2947 3766 2947 
Q 3994 2947 4170 2830 
Q 4347 2713 4450 2447 
Q 4519 2266 4519 1878 
L 4519 647 
Q 4519 378 4559 278 
Q 4591 209 4675 161 
Q 4759 113 4950 113 
L 4950 0 
L 3538 0 
L 3538 113 
L 3597 113 
Q 3781 113 3884 184 
Q 3956 234 3988 344 
Q 4000 397 4000 647 
L 4000 1878 
Q 4000 2228 3916 2372 
Q 3794 2572 3525 2572 
Q 3359 2572 3192 2489 
Q 3025 2406 2788 2181 
L 2781 2147 
L 2788 2013 
L 2788 647 
Q 2788 353 2820 281 
Q 2853 209 2943 161 
Q 3034 113 3253 113 
L 3253 0 
L 1806 0 
L 1806 113 
Q 2044 113 2133 169 
Q 2222 225 2256 338 
Q 2272 391 2272 647 
L 2272 1878 
Q 2272 2228 2169 2381 
Q 2031 2581 1784 2581 
Q 1616 2581 1450 2491 
Q 1191 2353 1050 2181 
L 1050 647 
Q 1050 366 1089 281 
Q 1128 197 1204 155 
Q 1281 113 1516 113 
L 1516 0 
L 100 0 
L 100 113 
Q 297 113 375 155 
Q 453 197 493 289 
Q 534 381 534 647 
L 534 1741 
Q 534 2213 506 2350 
Q 484 2453 437 2492 
Q 391 2531 309 2531 
Q 222 2531 100 2484 
L 53 2597 
L 916 2947 
L 1050 2947 
L 1050 2338 
z
" transform="scale(0.015625)"/>
       </defs>
       <use xlink:href="#TimesNewRomanPSMT-49"/>
       <use xlink:href="#TimesNewRomanPSMT-6e" x="33.300781"/>
       <use xlink:href="#TimesNewRomanPSMT-63" x="83.300781"/>
       <use xlink:href="#TimesNewRomanPSMT-65" x="127.685547"/>
       <use xlink:href="#TimesNewRomanPSMT-70" x="172.070312"/>
       <use xlink:href="#TimesNewRomanPSMT-74" x="222.070312"/>
       <use xlink:href="#TimesNewRomanPSMT-69" x="249.853516"/>
       <use xlink:href="#TimesNewRomanPSMT-6f" x="277.636719"/>
       <use xlink:href="#TimesNewRomanPSMT-6e" x="327.636719"/>
       <use xlink:href="#TimesNewRomanPSMT-54" x="377.636719"/>
       <use xlink:href="#TimesNewRomanPSMT-69" x="435.220703"/>
       <use xlink:href="#TimesNewRomanPSMT-6d" x="463.003906"/>
       <use xlink:href="#TimesNewRomanPSMT-65" x="540.787109"/>
      </g>
     </g>
    </g>
    <g id="xtick_5">
     <g id="line2d_5">
      <g>
       <use xlink:href="#m5d5b833757" x="373.47125" y="443.32" style="stroke: #000000; stroke-width: 0.8"/>
      </g>
     </g>
     <g id="text_5">
      <!-- LITE -->
      <g transform="translate(358.314062 460.04125) scale(0.14 -0.14)">
       <defs>
        <path id="TimesNewRomanPSMT-4c" d="M 3669 1172 
L 3772 1150 
L 3409 0 
L 128 0 
L 128 116 
L 288 116 
Q 556 116 672 291 
Q 738 391 738 753 
L 738 3488 
Q 738 3884 650 3984 
Q 528 4122 288 4122 
L 128 4122 
L 128 4238 
L 2047 4238 
L 2047 4122 
Q 1709 4125 1573 4059 
Q 1438 3994 1388 3894 
Q 1338 3794 1338 3416 
L 1338 753 
Q 1338 494 1388 397 
Q 1425 331 1503 300 
Q 1581 269 1991 269 
L 2300 269 
Q 2788 269 2984 341 
Q 3181 413 3343 595 
Q 3506 778 3669 1172 
z
" transform="scale(0.015625)"/>
        <path id="TimesNewRomanPSMT-45" d="M 1338 4006 
L 1338 2331 
L 2269 2331 
Q 2631 2331 2753 2441 
Q 2916 2584 2934 2947 
L 3050 2947 
L 3050 1472 
L 2934 1472 
Q 2891 1781 2847 1869 
Q 2791 1978 2662 2040 
Q 2534 2103 2269 2103 
L 1338 2103 
L 1338 706 
Q 1338 425 1363 364 
Q 1388 303 1450 267 
Q 1513 231 1688 231 
L 2406 231 
Q 2766 231 2928 281 
Q 3091 331 3241 478 
Q 3434 672 3638 1063 
L 3763 1063 
L 3397 0 
L 131 0 
L 131 116 
L 281 116 
Q 431 116 566 188 
Q 666 238 702 338 
Q 738 438 738 747 
L 738 3500 
Q 738 3903 656 3997 
Q 544 4122 281 4122 
L 131 4122 
L 131 4238 
L 3397 4238 
L 3444 3309 
L 3322 3309 
Q 3256 3644 3176 3769 
Q 3097 3894 2941 3959 
Q 2816 4006 2500 4006 
L 1338 4006 
z
" transform="scale(0.015625)"/>
       </defs>
       <use xlink:href="#TimesNewRomanPSMT-4c"/>
       <use xlink:href="#TimesNewRomanPSMT-49" x="61.083984"/>
       <use xlink:href="#TimesNewRomanPSMT-54" x="94.384766"/>
       <use xlink:href="#TimesNewRomanPSMT-45" x="155.46875"/>
      </g>
     </g>
    </g>
    <g id="xtick_6">
     <g id="line2d_6">
      <g>
       <use xlink:href="#m5d5b833757" x="445.361528" y="443.32" style="stroke: #000000; stroke-width: 0.8"/>
      </g>
     </g>
     <g id="text_6">
      <!-- LITETime -->
      <g transform="translate(415.677153 460.04125) scale(0.14 -0.14)">
       <use xlink:href="#TimesNewRomanPSMT-4c"/>
       <use xlink:href="#TimesNewRomanPSMT-49" x="61.083984"/>
       <use xlink:href="#TimesNewRomanPSMT-54" x="94.384766"/>
       <use xlink:href="#TimesNewRomanPSMT-45" x="155.46875"/>
       <use xlink:href="#TimesNewRomanPSMT-54" x="216.552734"/>
       <use xlink:href="#TimesNewRomanPSMT-69" x="274.136719"/>
       <use xlink:href="#TimesNewRomanPSMT-6d" x="301.919922"/>
       <use xlink:href="#TimesNewRomanPSMT-65" x="379.703125"/>
      </g>
     </g>
    </g>
    <g id="xtick_7">
     <g id="line2d_7">
      <g>
       <use xlink:href="#m5d5b833757" x="517.251806" y="443.32" style="stroke: #000000; stroke-width: 0.8"/>
      </g>
     </g>
     <g id="text_7">
      <!-- ROCKET -->
      <g transform="translate(489.251806 460.04125) scale(0.14 -0.14)">
       <defs>
        <path id="TimesNewRomanPSMT-4f" d="M 2341 4334 
Q 3166 4334 3770 3707 
Q 4375 3081 4375 2144 
Q 4375 1178 3765 540 
Q 3156 -97 2291 -97 
Q 1416 -97 820 525 
Q 225 1147 225 2134 
Q 225 3144 913 3781 
Q 1509 4334 2341 4334 
z
M 2281 4106 
Q 1713 4106 1369 3684 
Q 941 3159 941 2147 
Q 941 1109 1384 550 
Q 1725 125 2284 125 
Q 2881 125 3270 590 
Q 3659 1056 3659 2059 
Q 3659 3147 3231 3681 
Q 2888 4106 2281 4106 
z
" transform="scale(0.015625)"/>
        <path id="TimesNewRomanPSMT-4b" d="M 1913 2350 
L 3475 797 
Q 3859 413 4131 273 
Q 4403 134 4675 116 
L 4675 0 
L 2659 0 
L 2659 116 
Q 2841 116 2920 177 
Q 3000 238 3000 313 
Q 3000 388 2970 447 
Q 2941 506 2775 669 
L 1313 2116 
L 1313 750 
Q 1313 428 1353 325 
Q 1384 247 1484 191 
Q 1619 116 1769 116 
L 1913 116 
L 1913 0 
L 106 0 
L 106 116 
L 256 116 
Q 519 116 638 269 
Q 713 369 713 750 
L 713 3488 
Q 713 3809 672 3916 
Q 641 3991 544 4047 
Q 406 4122 256 4122 
L 106 4122 
L 106 4238 
L 1913 4238 
L 1913 4122 
L 1769 4122 
Q 1622 4122 1484 4050 
Q 1388 4000 1350 3900 
Q 1313 3800 1313 3488 
L 1313 2191 
Q 1375 2250 1741 2588 
Q 2669 3438 2863 3722 
Q 2947 3847 2947 3941 
Q 2947 4013 2881 4067 
Q 2816 4122 2659 4122 
L 2563 4122 
L 2563 4238 
L 4119 4238 
L 4119 4122 
Q 3981 4119 3868 4084 
Q 3756 4050 3593 3951 
Q 3431 3853 3194 3634 
Q 3125 3572 2559 2994 
L 1913 2350 
z
" transform="scale(0.015625)"/>
       </defs>
       <use xlink:href="#TimesNewRomanPSMT-52"/>
       <use xlink:href="#TimesNewRomanPSMT-4f" x="66.699219"/>
       <use xlink:href="#TimesNewRomanPSMT-43" x="138.916016"/>
       <use xlink:href="#TimesNewRomanPSMT-4b" x="205.615234"/>
       <use xlink:href="#TimesNewRomanPSMT-45" x="277.832031"/>
       <use xlink:href="#TimesNewRomanPSMT-54" x="338.916016"/>
      </g>
     </g>
    </g>
    <g id="xtick_8">
     <g id="line2d_8">
      <g>
       <use xlink:href="#m5d5b833757" x="589.142083" y="443.32" style="stroke: #000000; stroke-width: 0.8"/>
      </g>
     </g>
     <g id="text_8">
      <!-- MMM4TSC -->
      <g transform="translate(554.131146 460.04125) scale(0.14 -0.14)">
       <defs>
        <path id="TimesNewRomanPSMT-4d" d="M 2619 0 
L 981 3566 
L 981 734 
Q 981 344 1066 247 
Q 1181 116 1431 116 
L 1581 116 
L 1581 0 
L 106 0 
L 106 116 
L 256 116 
Q 525 116 638 278 
Q 706 378 706 734 
L 706 3503 
Q 706 3784 644 3909 
Q 600 4000 483 4061 
Q 366 4122 106 4122 
L 106 4238 
L 1306 4238 
L 2844 922 
L 4356 4238 
L 5556 4238 
L 5556 4122 
L 5409 4122 
Q 5138 4122 5025 3959 
Q 4956 3859 4956 3503 
L 4956 734 
Q 4956 344 5044 247 
Q 5159 116 5409 116 
L 5556 116 
L 5556 0 
L 3756 0 
L 3756 116 
L 3906 116 
Q 4178 116 4288 278 
Q 4356 378 4356 734 
L 4356 3566 
L 2722 0 
L 2619 0 
z
" transform="scale(0.015625)"/>
        <path id="TimesNewRomanPSMT-34" d="M 2978 1563 
L 2978 1119 
L 2409 1119 
L 2409 0 
L 1894 0 
L 1894 1119 
L 100 1119 
L 100 1519 
L 2066 4325 
L 2409 4325 
L 2409 1563 
L 2978 1563 
z
M 1894 1563 
L 1894 3666 
L 406 1563 
L 1894 1563 
z
" transform="scale(0.015625)"/>
        <path id="TimesNewRomanPSMT-53" d="M 2934 4334 
L 2934 2869 
L 2819 2869 
Q 2763 3291 2617 3541 
Q 2472 3791 2203 3937 
Q 1934 4084 1647 4084 
Q 1322 4084 1109 3886 
Q 897 3688 897 3434 
Q 897 3241 1031 3081 
Q 1225 2847 1953 2456 
Q 2547 2138 2764 1967 
Q 2981 1797 3098 1565 
Q 3216 1334 3216 1081 
Q 3216 600 2842 251 
Q 2469 -97 1881 -97 
Q 1697 -97 1534 -69 
Q 1438 -53 1133 45 
Q 828 144 747 144 
Q 669 144 623 97 
Q 578 50 556 -97 
L 441 -97 
L 441 1356 
L 556 1356 
Q 638 900 775 673 
Q 913 447 1195 297 
Q 1478 147 1816 147 
Q 2206 147 2432 353 
Q 2659 559 2659 841 
Q 2659 997 2573 1156 
Q 2488 1316 2306 1453 
Q 2184 1547 1640 1851 
Q 1097 2156 867 2337 
Q 638 2519 519 2737 
Q 400 2956 400 3219 
Q 400 3675 750 4004 
Q 1100 4334 1641 4334 
Q 1978 4334 2356 4169 
Q 2531 4091 2603 4091 
Q 2684 4091 2736 4139 
Q 2788 4188 2819 4334 
L 2934 4334 
z
" transform="scale(0.015625)"/>
       </defs>
       <use xlink:href="#TimesNewRomanPSMT-4d"/>
       <use xlink:href="#TimesNewRomanPSMT-4d" x="88.916016"/>
       <use xlink:href="#TimesNewRomanPSMT-4d" x="177.832031"/>
       <use xlink:href="#TimesNewRomanPSMT-34" x="266.748047"/>
       <use xlink:href="#TimesNewRomanPSMT-54" x="316.748047"/>
       <use xlink:href="#TimesNewRomanPSMT-53" x="377.832031"/>
       <use xlink:href="#TimesNewRomanPSMT-43" x="433.447266"/>
      </g>
     </g>
    </g>
    <g id="xtick_9">
     <g id="line2d_9">
      <g>
       <use xlink:href="#m5d5b833757" x="661.032361" y="443.32" style="stroke: #000000; stroke-width: 0.8"/>
      </g>
     </g>
    </g>
    <g id="text_9">
     <!-- Model -->
     <g transform="translate(351.6975 477.630937) scale(0.16 -0.16)">
      <defs>
       <path id="TimesNewRomanPS-BoldMT-4d" d="M 3050 1444 
L 4200 4238 
L 5925 4238 
L 5925 4122 
L 5788 4122 
Q 5600 4122 5488 4056 
Q 5409 4013 5363 3909 
Q 5328 3834 5328 3519 
L 5328 725 
Q 5328 400 5362 319 
Q 5397 238 5503 177 
Q 5609 116 5788 116 
L 5925 116 
L 5925 0 
L 3713 0 
L 3713 116 
L 3850 116 
Q 4038 116 4150 181 
Q 4228 225 4275 331 
Q 4309 406 4309 725 
L 4309 3866 
L 2684 0 
L 2609 0 
L 959 3838 
L 959 853 
Q 959 541 975 469 
Q 1016 313 1152 214 
Q 1288 116 1578 116 
L 1578 0 
L 128 0 
L 128 116 
L 172 116 
Q 313 113 434 161 
Q 556 209 618 290 
Q 681 372 716 519 
Q 722 553 722 838 
L 722 3519 
Q 722 3841 687 3920 
Q 653 4000 547 4061 
Q 441 4122 263 4122 
L 128 4122 
L 128 4238 
L 1859 4238 
L 3050 1444 
z
" transform="scale(0.015625)"/>
       <path id="TimesNewRomanPS-BoldMT-6f" d="M 1594 3009 
Q 1975 3009 2303 2812 
Q 2631 2616 2801 2253 
Q 2972 1891 2972 1459 
Q 2972 838 2656 419 
Q 2275 -88 1603 -88 
Q 944 -88 587 375 
Q 231 838 231 1447 
Q 231 2075 595 2542 
Q 959 3009 1594 3009 
z
M 1606 2788 
Q 1447 2788 1333 2667 
Q 1219 2547 1183 2192 
Q 1147 1838 1147 1206 
Q 1147 872 1191 581 
Q 1225 359 1337 243 
Q 1450 128 1594 128 
Q 1734 128 1828 206 
Q 1950 313 1991 503 
Q 2053 800 2053 1703 
Q 2053 2234 1993 2432 
Q 1934 2631 1819 2722 
Q 1738 2788 1606 2788 
z
" transform="scale(0.015625)"/>
       <path id="TimesNewRomanPS-BoldMT-64" d="M 3056 4238 
L 3056 875 
Q 3056 534 3075 472 
Q 3100 369 3170 319 
Q 3241 269 3416 256 
L 3416 153 
L 2181 -88 
L 2181 375 
Q 1959 106 1786 9 
Q 1613 -88 1394 -88 
Q 834 -88 509 413 
Q 247 819 247 1409 
Q 247 1881 409 2254 
Q 572 2628 855 2818 
Q 1138 3009 1463 3009 
Q 1672 3009 1834 2928 
Q 1997 2847 2181 2644 
L 2181 3525 
Q 2181 3859 2153 3928 
Q 2116 4019 2041 4062 
Q 1966 4106 1759 4106 
L 1759 4238 
L 3056 4238 
z
M 2181 2256 
Q 1950 2700 1616 2700 
Q 1500 2700 1425 2638 
Q 1309 2541 1236 2297 
Q 1163 2053 1163 1550 
Q 1163 997 1244 731 
Q 1325 466 1466 347 
Q 1538 288 1663 288 
Q 1938 288 2181 719 
L 2181 2256 
z
" transform="scale(0.015625)"/>
       <path id="TimesNewRomanPS-BoldMT-65" d="M 2691 1566 
L 1088 1566 
Q 1116 984 1397 647 
Q 1613 388 1916 388 
Q 2103 388 2256 492 
Q 2409 597 2584 869 
L 2691 800 
Q 2453 316 2165 114 
Q 1878 -88 1500 -88 
Q 850 -88 516 413 
Q 247 816 247 1413 
Q 247 2144 642 2576 
Q 1038 3009 1569 3009 
Q 2013 3009 2339 2645 
Q 2666 2281 2691 1566 
z
M 1922 1775 
Q 1922 2278 1867 2465 
Q 1813 2653 1697 2750 
Q 1631 2806 1522 2806 
Q 1359 2806 1256 2647 
Q 1072 2369 1072 1884 
L 1072 1775 
L 1922 1775 
z
" transform="scale(0.015625)"/>
       <path id="TimesNewRomanPS-BoldMT-6c" d="M 1359 4238 
L 1359 606 
Q 1359 297 1431 211 
Q 1503 125 1713 113 
L 1713 0 
L 134 0 
L 134 113 
Q 328 119 422 225 
Q 484 297 484 606 
L 484 3631 
Q 484 3938 412 4023 
Q 341 4109 134 4122 
L 134 4238 
L 1359 4238 
z
" transform="scale(0.015625)"/>
      </defs>
      <use xlink:href="#TimesNewRomanPS-BoldMT-4d"/>
      <use xlink:href="#TimesNewRomanPS-BoldMT-6f" x="94.384766"/>
      <use xlink:href="#TimesNewRomanPS-BoldMT-64" x="144.384766"/>
      <use xlink:href="#TimesNewRomanPS-BoldMT-65" x="200"/>
      <use xlink:href="#TimesNewRomanPS-BoldMT-6c" x="244.384766"/>
     </g>
    </g>
   </g>
   <g id="matplotlib.axis_2">
    <g id="ytick_1">
     <g id="line2d_10">
      <defs>
       <path id="m2f524a388e" d="M 0 0 
L -3.5 0 
" style="stroke: #000000; stroke-width: 0.8"/>
      </defs>
      <g>
       <use xlink:href="#m2f524a388e" x="49.965" y="429.125794" style="stroke: #000000; stroke-width: 0.8"/>
      </g>
     </g>
     <g id="text_10">
      <!-- 0.0 -->
      <g transform="translate(25.465 433.986419) scale(0.14 -0.14)">
       <defs>
        <path id="TimesNewRomanPSMT-30" d="M 231 2094 
Q 231 2819 450 3342 
Q 669 3866 1031 4122 
Q 1313 4325 1613 4325 
Q 2100 4325 2488 3828 
Q 2972 3213 2972 2159 
Q 2972 1422 2759 906 
Q 2547 391 2217 158 
Q 1888 -75 1581 -75 
Q 975 -75 572 641 
Q 231 1244 231 2094 
z
M 844 2016 
Q 844 1141 1059 588 
Q 1238 122 1591 122 
Q 1759 122 1940 273 
Q 2122 425 2216 781 
Q 2359 1319 2359 2297 
Q 2359 3022 2209 3506 
Q 2097 3866 1919 4016 
Q 1791 4119 1609 4119 
Q 1397 4119 1231 3928 
Q 1006 3669 925 3112 
Q 844 2556 844 2016 
z
" transform="scale(0.015625)"/>
        <path id="TimesNewRomanPSMT-2e" d="M 800 606 
Q 947 606 1047 504 
Q 1147 403 1147 259 
Q 1147 116 1045 14 
Q 944 -88 800 -88 
Q 656 -88 554 14 
Q 453 116 453 259 
Q 453 406 554 506 
Q 656 606 800 606 
z
" transform="scale(0.015625)"/>
       </defs>
       <use xlink:href="#TimesNewRomanPSMT-30"/>
       <use xlink:href="#TimesNewRomanPSMT-2e" x="50"/>
       <use xlink:href="#TimesNewRomanPSMT-30" x="75"/>
      </g>
     </g>
    </g>
    <g id="ytick_2">
     <g id="line2d_11">
      <g>
       <use xlink:href="#m2f524a388e" x="49.965" y="348.705362" style="stroke: #000000; stroke-width: 0.8"/>
      </g>
     </g>
     <g id="text_11">
      <!-- 0.2 -->
      <g transform="translate(25.465 353.565987) scale(0.14 -0.14)">
       <defs>
        <path id="TimesNewRomanPSMT-32" d="M 2934 816 
L 2638 0 
L 138 0 
L 138 116 
Q 1241 1122 1691 1759 
Q 2141 2397 2141 2925 
Q 2141 3328 1894 3587 
Q 1647 3847 1303 3847 
Q 991 3847 742 3664 
Q 494 3481 375 3128 
L 259 3128 
Q 338 3706 661 4015 
Q 984 4325 1469 4325 
Q 1984 4325 2329 3994 
Q 2675 3663 2675 3213 
Q 2675 2891 2525 2569 
Q 2294 2063 1775 1497 
Q 997 647 803 472 
L 1909 472 
Q 2247 472 2383 497 
Q 2519 522 2628 598 
Q 2738 675 2819 816 
L 2934 816 
z
" transform="scale(0.015625)"/>
       </defs>
       <use xlink:href="#TimesNewRomanPSMT-30"/>
       <use xlink:href="#TimesNewRomanPSMT-2e" x="50"/>
       <use xlink:href="#TimesNewRomanPSMT-32" x="75"/>
      </g>
     </g>
    </g>
    <g id="ytick_3">
     <g id="line2d_12">
      <g>
       <use xlink:href="#m2f524a388e" x="49.965" y="268.284931" style="stroke: #000000; stroke-width: 0.8"/>
      </g>
     </g>
     <g id="text_12">
      <!-- 0.4 -->
      <g transform="translate(25.465 273.145556) scale(0.14 -0.14)">
       <use xlink:href="#TimesNewRomanPSMT-30"/>
       <use xlink:href="#TimesNewRomanPSMT-2e" x="50"/>
       <use xlink:href="#TimesNewRomanPSMT-34" x="75"/>
      </g>
     </g>
    </g>
    <g id="ytick_4">
     <g id="line2d_13">
      <g>
       <use xlink:href="#m2f524a388e" x="49.965" y="187.864499" style="stroke: #000000; stroke-width: 0.8"/>
      </g>
     </g>
     <g id="text_13">
      <!-- 0.6 -->
      <g transform="translate(25.465 192.725124) scale(0.14 -0.14)">
       <defs>
        <path id="TimesNewRomanPSMT-36" d="M 2869 4325 
L 2869 4209 
Q 2456 4169 2195 4045 
Q 1934 3922 1679 3669 
Q 1425 3416 1258 3105 
Q 1091 2794 978 2366 
Q 1428 2675 1881 2675 
Q 2316 2675 2634 2325 
Q 2953 1975 2953 1425 
Q 2953 894 2631 456 
Q 2244 -75 1606 -75 
Q 1172 -75 869 213 
Q 275 772 275 1663 
Q 275 2231 503 2743 
Q 731 3256 1154 3653 
Q 1578 4050 1965 4187 
Q 2353 4325 2688 4325 
L 2869 4325 
z
M 925 2138 
Q 869 1716 869 1456 
Q 869 1156 980 804 
Q 1091 453 1309 247 
Q 1469 100 1697 100 
Q 1969 100 2183 356 
Q 2397 613 2397 1088 
Q 2397 1622 2184 2012 
Q 1972 2403 1581 2403 
Q 1463 2403 1327 2353 
Q 1191 2303 925 2138 
z
" transform="scale(0.015625)"/>
       </defs>
       <use xlink:href="#TimesNewRomanPSMT-30"/>
       <use xlink:href="#TimesNewRomanPSMT-2e" x="50"/>
       <use xlink:href="#TimesNewRomanPSMT-36" x="75"/>
      </g>
     </g>
    </g>
    <g id="ytick_5">
     <g id="line2d_14">
      <g>
       <use xlink:href="#m2f524a388e" x="49.965" y="107.444068" style="stroke: #000000; stroke-width: 0.8"/>
      </g>
     </g>
     <g id="text_14">
      <!-- 0.8 -->
      <g transform="translate(25.465 112.304693) scale(0.14 -0.14)">
       <defs>
        <path id="TimesNewRomanPSMT-38" d="M 1228 2134 
Q 725 2547 579 2797 
Q 434 3047 434 3316 
Q 434 3728 753 4026 
Q 1072 4325 1600 4325 
Q 2113 4325 2425 4047 
Q 2738 3769 2738 3413 
Q 2738 3175 2569 2928 
Q 2400 2681 1866 2347 
Q 2416 1922 2594 1678 
Q 2831 1359 2831 1006 
Q 2831 559 2490 242 
Q 2150 -75 1597 -75 
Q 994 -75 656 303 
Q 388 606 388 966 
Q 388 1247 577 1523 
Q 766 1800 1228 2134 
z
M 1719 2469 
Q 2094 2806 2194 3001 
Q 2294 3197 2294 3444 
Q 2294 3772 2109 3958 
Q 1925 4144 1606 4144 
Q 1288 4144 1088 3959 
Q 888 3775 888 3528 
Q 888 3366 970 3203 
Q 1053 3041 1206 2894 
L 1719 2469 
z
M 1375 2016 
Q 1116 1797 991 1539 
Q 866 1281 866 981 
Q 866 578 1086 336 
Q 1306 94 1647 94 
Q 1984 94 2187 284 
Q 2391 475 2391 747 
Q 2391 972 2272 1150 
Q 2050 1481 1375 2016 
z
" transform="scale(0.015625)"/>
       </defs>
       <use xlink:href="#TimesNewRomanPSMT-30"/>
       <use xlink:href="#TimesNewRomanPSMT-2e" x="50"/>
       <use xlink:href="#TimesNewRomanPSMT-38" x="75"/>
      </g>
     </g>
    </g>
    <g id="ytick_6">
     <g id="line2d_15">
      <g>
       <use xlink:href="#m2f524a388e" x="49.965" y="27.023636" style="stroke: #000000; stroke-width: 0.8"/>
      </g>
     </g>
     <g id="text_15">
      <!-- 1.0 -->
      <g transform="translate(25.465 31.884261) scale(0.14 -0.14)">
       <defs>
        <path id="TimesNewRomanPSMT-31" d="M 750 3822 
L 1781 4325 
L 1884 4325 
L 1884 747 
Q 1884 391 1914 303 
Q 1944 216 2037 169 
Q 2131 122 2419 116 
L 2419 0 
L 825 0 
L 825 116 
Q 1125 122 1212 167 
Q 1300 213 1334 289 
Q 1369 366 1369 747 
L 1369 3034 
Q 1369 3497 1338 3628 
Q 1316 3728 1258 3775 
Q 1200 3822 1119 3822 
Q 1003 3822 797 3725 
L 750 3822 
z
" transform="scale(0.015625)"/>
       </defs>
       <use xlink:href="#TimesNewRomanPSMT-31"/>
       <use xlink:href="#TimesNewRomanPSMT-2e" x="50"/>
       <use xlink:href="#TimesNewRomanPSMT-30" x="75"/>
      </g>
     </g>
    </g>
    <g id="text_16">
     <!-- Accuracy -->
     <g transform="translate(18.0125 257.69125) rotate(-90) scale(0.16 -0.16)">
      <defs>
       <path id="TimesNewRomanPS-BoldMT-41" d="M 2663 1206 
L 1166 1206 
L 988 794 
Q 900 588 900 453 
Q 900 275 1044 191 
Q 1128 141 1459 116 
L 1459 0 
L 50 0 
L 50 116 
Q 278 150 425 304 
Q 572 459 788 944 
L 2303 4325 
L 2363 4325 
L 3891 850 
Q 4109 356 4250 228 
Q 4356 131 4550 116 
L 4550 0 
L 2500 0 
L 2500 116 
L 2584 116 
Q 2831 116 2931 184 
Q 3000 234 3000 328 
Q 3000 384 2981 444 
Q 2975 472 2888 678 
L 2663 1206 
z
M 2556 1438 
L 1925 2897 
L 1275 1438 
L 2556 1438 
z
" transform="scale(0.015625)"/>
       <path id="TimesNewRomanPS-BoldMT-63" d="M 2600 753 
L 2697 678 
Q 2491 291 2183 101 
Q 1875 -88 1528 -88 
Q 944 -88 594 353 
Q 244 794 244 1413 
Q 244 2009 563 2463 
Q 947 3009 1622 3009 
Q 2075 3009 2342 2781 
Q 2609 2553 2609 2272 
Q 2609 2094 2501 1987 
Q 2394 1881 2219 1881 
Q 2034 1881 1914 2003 
Q 1794 2125 1766 2438 
Q 1747 2634 1675 2713 
Q 1603 2791 1506 2791 
Q 1356 2791 1250 2631 
Q 1088 2391 1088 1894 
Q 1088 1481 1219 1104 
Q 1350 728 1578 544 
Q 1750 409 1984 409 
Q 2138 409 2275 481 
Q 2413 553 2600 753 
z
" transform="scale(0.015625)"/>
       <path id="TimesNewRomanPS-BoldMT-75" d="M 3038 2922 
L 3038 634 
Q 3038 300 3100 217 
Q 3163 134 3353 113 
L 3353 0 
L 2163 0 
L 2163 391 
Q 1953 141 1743 26 
Q 1534 -88 1275 -88 
Q 1028 -88 836 64 
Q 644 216 578 419 
Q 513 622 513 1128 
L 513 2288 
Q 513 2619 452 2700 
Q 391 2781 197 2806 
L 197 2922 
L 1388 2922 
L 1388 925 
Q 1388 613 1417 522 
Q 1447 431 1511 384 
Q 1575 338 1659 338 
Q 1772 338 1863 397 
Q 1988 478 2163 725 
L 2163 2288 
Q 2163 2619 2102 2700 
Q 2041 2781 1847 2806 
L 1847 2922 
L 3038 2922 
z
" transform="scale(0.015625)"/>
       <path id="TimesNewRomanPS-BoldMT-72" d="M 1428 2922 
L 1428 2259 
Q 1719 2713 1937 2861 
Q 2156 3009 2359 3009 
Q 2534 3009 2639 2901 
Q 2744 2794 2744 2597 
Q 2744 2388 2642 2272 
Q 2541 2156 2397 2156 
Q 2231 2156 2109 2262 
Q 1988 2369 1966 2381 
Q 1934 2400 1894 2400 
Q 1803 2400 1722 2331 
Q 1594 2225 1528 2028 
Q 1428 1725 1428 1359 
L 1428 688 
L 1431 513 
Q 1431 334 1453 284 
Q 1491 200 1564 161 
Q 1638 122 1813 113 
L 1813 0 
L 234 0 
L 234 113 
Q 425 128 492 217 
Q 559 306 559 688 
L 559 2303 
Q 559 2553 534 2622 
Q 503 2709 443 2750 
Q 384 2791 234 2806 
L 234 2922 
L 1428 2922 
z
" transform="scale(0.015625)"/>
       <path id="TimesNewRomanPS-BoldMT-61" d="M 1828 431 
Q 1294 -41 869 -41 
Q 619 -41 453 123 
Q 288 288 288 534 
Q 288 869 575 1136 
Q 863 1403 1828 1847 
L 1828 2141 
Q 1828 2472 1792 2558 
Q 1756 2644 1656 2708 
Q 1556 2772 1431 2772 
Q 1228 2772 1097 2681 
Q 1016 2625 1016 2550 
Q 1016 2484 1103 2388 
Q 1222 2253 1222 2128 
Q 1222 1975 1108 1867 
Q 994 1759 809 1759 
Q 613 1759 480 1878 
Q 347 1997 347 2156 
Q 347 2381 525 2586 
Q 703 2791 1022 2900 
Q 1341 3009 1684 3009 
Q 2100 3009 2342 2832 
Q 2584 2656 2656 2450 
Q 2700 2319 2700 1847 
L 2700 713 
Q 2700 513 2715 461 
Q 2731 409 2762 384 
Q 2794 359 2834 359 
Q 2916 359 3000 475 
L 3094 400 
Q 2938 169 2770 64 
Q 2603 -41 2391 -41 
Q 2141 -41 2000 76 
Q 1859 194 1828 431 
z
M 1828 659 
L 1828 1638 
Q 1450 1416 1266 1163 
Q 1144 994 1144 822 
Q 1144 678 1247 569 
Q 1325 484 1466 484 
Q 1622 484 1828 659 
z
" transform="scale(0.015625)"/>
       <path id="TimesNewRomanPS-BoldMT-79" d="M 1556 -119 
L 613 2047 
Q 400 2538 298 2650 
Q 197 2763 53 2806 
L 53 2922 
L 1606 2922 
L 1606 2806 
Q 1453 2800 1390 2747 
Q 1328 2694 1328 2619 
Q 1328 2500 1484 2150 
L 1984 1006 
L 2325 1891 
Q 2509 2363 2509 2547 
Q 2509 2663 2432 2731 
Q 2356 2800 2163 2806 
L 2163 2922 
L 3141 2922 
L 3141 2806 
Q 2997 2791 2906 2695 
Q 2816 2600 2603 2047 
L 1769 -119 
Q 1453 -931 1300 -1119 
Q 1084 -1381 759 -1381 
Q 500 -1381 339 -1232 
Q 178 -1084 178 -875 
Q 178 -694 289 -575 
Q 400 -456 563 -456 
Q 719 -456 814 -556 
Q 909 -656 913 -866 
Q 916 -984 941 -1019 
Q 966 -1053 1013 -1053 
Q 1088 -1053 1172 -963 
Q 1297 -831 1466 -363 
L 1556 -119 
z
" transform="scale(0.015625)"/>
      </defs>
      <use xlink:href="#TimesNewRomanPS-BoldMT-41"/>
      <use xlink:href="#TimesNewRomanPS-BoldMT-63" x="72.216797"/>
      <use xlink:href="#TimesNewRomanPS-BoldMT-63" x="116.601562"/>
      <use xlink:href="#TimesNewRomanPS-BoldMT-75" x="160.986328"/>
      <use xlink:href="#TimesNewRomanPS-BoldMT-72" x="216.601562"/>
      <use xlink:href="#TimesNewRomanPS-BoldMT-61" x="260.986328"/>
      <use xlink:href="#TimesNewRomanPS-BoldMT-63" x="310.986328"/>
      <use xlink:href="#TimesNewRomanPS-BoldMT-79" x="355.371094"/>
     </g>
    </g>
   </g>
   <g id="patch_3">
    <path d="M 57.154028 143.884576 
L 114.66625 143.884576 
L 114.66625 45.902333 
L 57.154028 45.902333 
L 57.154028 143.884576 
z
" clip-path="url(#p8512c0c8ec)" style="fill: #d9e8fa; stroke: #454545; stroke-linejoin: miter"/>
   </g>
   <g id="line2d_16">
    <path d="M 85.910139 143.884576 
L 85.910139 284.85154 
" clip-path="url(#p8512c0c8ec)" style="fill: none; stroke: #454545"/>
   </g>
   <g id="line2d_17">
    <path d="M 85.910139 45.902333 
L 85.910139 27.023636 
" clip-path="url(#p8512c0c8ec)" style="fill: none; stroke: #454545"/>
   </g>
   <g id="line2d_18">
    <path d="M 71.532083 284.85154 
L 100.288194 284.85154 
" clip-path="url(#p8512c0c8ec)" style="fill: none; stroke: #454545; stroke-linecap: square"/>
   </g>
   <g id="line2d_19">
    <path d="M 71.532083 27.023636 
L 100.288194 27.023636 
" clip-path="url(#p8512c0c8ec)" style="fill: none; stroke: #454545; stroke-linecap: square"/>
   </g>
   <g id="line2d_20">
    <defs>
     <path id="m09b4e4e447" d="M 0 3 
C 0.795609 3 1.55874 2.683901 2.12132 2.12132 
C 2.683901 1.55874 3 0.795609 3 0 
C 3 -0.795609 2.683901 -1.55874 2.12132 -2.12132 
C 1.55874 -2.683901 0.795609 -3 0 -3 
C -0.795609 -3 -1.55874 -2.683901 -2.12132 -2.12132 
C -2.683901 -1.55874 -3 -0.795609 -3 0 
C -3 0.795609 -2.683901 1.55874 -2.12132 2.12132 
C -1.55874 2.683901 -0.795609 3 0 3 
z
" style="stroke: #454545"/>
    </defs>
    <g clip-path="url(#p8512c0c8ec)">
     <use xlink:href="#m09b4e4e447" x="85.910139" y="423.496364" style="fill-opacity: 0; stroke: #454545"/>
     <use xlink:href="#m09b4e4e447" x="85.910139" y="297.96007" style="fill-opacity: 0; stroke: #454545"/>
     <use xlink:href="#m09b4e4e447" x="85.910139" y="299.126166" style="fill-opacity: 0; stroke: #454545"/>
     <use xlink:href="#m09b4e4e447" x="85.910139" y="309.621033" style="fill-opacity: 0; stroke: #454545"/>
     <use xlink:href="#m09b4e4e447" x="85.910139" y="298.281752" style="fill-opacity: 0; stroke: #454545"/>
     <use xlink:href="#m09b4e4e447" x="85.910139" y="351.801549" style="fill-opacity: 0; stroke: #454545"/>
    </g>
   </g>
   <g id="patch_4">
    <path d="M 129.044306 131.640565 
L 186.556528 131.640565 
L 186.556528 43.942085 
L 129.044306 43.942085 
L 129.044306 131.640565 
z
" clip-path="url(#p8512c0c8ec)" style="fill: #bcd6f5; stroke: #454545; stroke-linejoin: miter"/>
   </g>
   <g id="line2d_21">
    <path d="M 157.800417 131.640565 
L 157.800417 252.562736 
" clip-path="url(#p8512c0c8ec)" style="fill: none; stroke: #454545"/>
   </g>
   <g id="line2d_22">
    <path d="M 157.800417 43.942085 
L 157.800417 27.023636 
" clip-path="url(#p8512c0c8ec)" style="fill: none; stroke: #454545"/>
   </g>
   <g id="line2d_23">
    <path d="M 143.422361 252.562736 
L 172.178472 252.562736 
" clip-path="url(#p8512c0c8ec)" style="fill: none; stroke: #454545; stroke-linecap: square"/>
   </g>
   <g id="line2d_24">
    <path d="M 143.422361 27.023636 
L 172.178472 27.023636 
" clip-path="url(#p8512c0c8ec)" style="fill: none; stroke: #454545; stroke-linecap: square"/>
   </g>
   <g id="line2d_25">
    <g clip-path="url(#p8512c0c8ec)">
     <use xlink:href="#m09b4e4e447" x="157.800417" y="308.213675" style="fill-opacity: 0; stroke: #454545"/>
     <use xlink:href="#m09b4e4e447" x="157.800417" y="368.81047" style="fill-opacity: 0; stroke: #454545"/>
     <use xlink:href="#m09b4e4e447" x="157.800417" y="357.792871" style="fill-opacity: 0; stroke: #454545"/>
     <use xlink:href="#m09b4e4e447" x="157.800417" y="292.41106" style="fill-opacity: 0; stroke: #454545"/>
     <use xlink:href="#m09b4e4e447" x="157.800417" y="277.49307" style="fill-opacity: 0; stroke: #454545"/>
     <use xlink:href="#m09b4e4e447" x="157.800417" y="279.584001" style="fill-opacity: 0; stroke: #454545"/>
     <use xlink:href="#m09b4e4e447" x="157.800417" y="295.064935" style="fill-opacity: 0; stroke: #454545"/>
     <use xlink:href="#m09b4e4e447" x="157.800417" y="265.952738" style="fill-opacity: 0; stroke: #454545"/>
    </g>
   </g>
   <g id="patch_5">
    <path d="M 200.934583 121.035121 
L 258.446806 121.035121 
L 258.446806 42.243203 
L 200.934583 42.243203 
L 200.934583 121.035121 
z
" clip-path="url(#p8512c0c8ec)" style="fill: #9ec3f1; stroke: #454545; stroke-linejoin: miter"/>
   </g>
   <g id="line2d_26">
    <path d="M 229.690694 121.035121 
L 229.690694 235.835287 
" clip-path="url(#p8512c0c8ec)" style="fill: none; stroke: #454545"/>
   </g>
   <g id="line2d_27">
    <path d="M 229.690694 42.243203 
L 229.690694 27.023636 
" clip-path="url(#p8512c0c8ec)" style="fill: none; stroke: #454545"/>
   </g>
   <g id="line2d_28">
    <path d="M 215.312639 235.835287 
L 244.06875 235.835287 
" clip-path="url(#p8512c0c8ec)" style="fill: none; stroke: #454545; stroke-linecap: square"/>
   </g>
   <g id="line2d_29">
    <path d="M 215.312639 27.023636 
L 244.06875 27.023636 
" clip-path="url(#p8512c0c8ec)" style="fill: none; stroke: #454545; stroke-linecap: square"/>
   </g>
   <g id="line2d_30">
    <g clip-path="url(#p8512c0c8ec)">
     <use xlink:href="#m09b4e4e447" x="229.690694" y="242.06787" style="fill-opacity: 0; stroke: #454545"/>
     <use xlink:href="#m09b4e4e447" x="229.690694" y="280.669677" style="fill-opacity: 0; stroke: #454545"/>
     <use xlink:href="#m09b4e4e447" x="229.690694" y="296.834184" style="fill-opacity: 0; stroke: #454545"/>
     <use xlink:href="#m09b4e4e447" x="229.690694" y="265.590846" style="fill-opacity: 0; stroke: #454545"/>
    </g>
   </g>
   <g id="patch_6">
    <path d="M 272.824861 112.862394 
L 330.337083 112.862394 
L 330.337083 41.006739 
L 272.824861 41.006739 
L 272.824861 112.862394 
z
" clip-path="url(#p8512c0c8ec)" style="fill: #81b2ec; stroke: #454545; stroke-linejoin: miter"/>
   </g>
   <g id="line2d_31">
    <path d="M 301.580972 112.862394 
L 301.580972 215.006395 
" clip-path="url(#p8512c0c8ec)" style="fill: none; stroke: #454545"/>
   </g>
   <g id="line2d_32">
    <path d="M 301.580972 41.006739 
L 301.580972 27.023636 
" clip-path="url(#p8512c0c8ec)" style="fill: none; stroke: #454545"/>
   </g>
   <g id="line2d_33">
    <path d="M 287.202917 215.006395 
L 315.959028 215.006395 
" clip-path="url(#p8512c0c8ec)" style="fill: none; stroke: #454545; stroke-linecap: square"/>
   </g>
   <g id="line2d_34">
    <path d="M 287.202917 27.023636 
L 315.959028 27.023636 
" clip-path="url(#p8512c0c8ec)" style="fill: none; stroke: #454545; stroke-linecap: square"/>
   </g>
   <g id="line2d_35">
    <g clip-path="url(#p8512c0c8ec)">
     <use xlink:href="#m09b4e4e447" x="301.580972" y="245.84763" style="fill-opacity: 0; stroke: #454545"/>
     <use xlink:href="#m09b4e4e447" x="301.580972" y="280.669677" style="fill-opacity: 0; stroke: #454545"/>
     <use xlink:href="#m09b4e4e447" x="301.580972" y="225.863153" style="fill-opacity: 0; stroke: #454545"/>
     <use xlink:href="#m09b4e4e447" x="301.580972" y="292.33064" style="fill-opacity: 0; stroke: #454545"/>
     <use xlink:href="#m09b4e4e447" x="301.580972" y="222.163813" style="fill-opacity: 0; stroke: #454545"/>
     <use xlink:href="#m09b4e4e447" x="301.580972" y="250.431595" style="fill-opacity: 0; stroke: #454545"/>
    </g>
   </g>
   <g id="patch_7">
    <path d="M 344.715139 127.659754 
L 402.227361 127.659754 
L 402.227361 45.269022 
L 344.715139 45.269022 
L 344.715139 127.659754 
z
" clip-path="url(#p8512c0c8ec)" style="fill: #639fe8; stroke: #454545; stroke-linejoin: miter"/>
   </g>
   <g id="line2d_36">
    <path d="M 373.47125 127.659754 
L 373.47125 236.639491 
" clip-path="url(#p8512c0c8ec)" style="fill: none; stroke: #454545"/>
   </g>
   <g id="line2d_37">
    <path d="M 373.47125 45.269022 
L 373.47125 27.023636 
" clip-path="url(#p8512c0c8ec)" style="fill: none; stroke: #454545"/>
   </g>
   <g id="line2d_38">
    <path d="M 359.093194 236.639491 
L 387.849306 236.639491 
" clip-path="url(#p8512c0c8ec)" style="fill: none; stroke: #454545; stroke-linecap: square"/>
   </g>
   <g id="line2d_39">
    <path d="M 359.093194 27.023636 
L 387.849306 27.023636 
" clip-path="url(#p8512c0c8ec)" style="fill: none; stroke: #454545; stroke-linecap: square"/>
   </g>
   <g id="line2d_40">
    <g clip-path="url(#p8512c0c8ec)">
     <use xlink:href="#m09b4e4e447" x="373.47125" y="272.265742" style="fill-opacity: 0; stroke: #454545"/>
     <use xlink:href="#m09b4e4e447" x="373.47125" y="274.477304" style="fill-opacity: 0; stroke: #454545"/>
     <use xlink:href="#m09b4e4e447" x="373.47125" y="304.715386" style="fill-opacity: 0; stroke: #454545"/>
     <use xlink:href="#m09b4e4e447" x="373.47125" y="289.556135" style="fill-opacity: 0; stroke: #454545"/>
    </g>
   </g>
   <g id="patch_8">
    <path d="M 416.605417 121.085384 
L 474.117639 121.085384 
L 474.117639 42.424149 
L 416.605417 42.424149 
L 416.605417 121.085384 
z
" clip-path="url(#p8512c0c8ec)" style="fill: #458de4; stroke: #454545; stroke-linejoin: miter"/>
   </g>
   <g id="line2d_41">
    <path d="M 445.361528 121.085384 
L 445.361528 229.683124 
" clip-path="url(#p8512c0c8ec)" style="fill: none; stroke: #454545"/>
   </g>
   <g id="line2d_42">
    <path d="M 445.361528 42.424149 
L 445.361528 27.023636 
" clip-path="url(#p8512c0c8ec)" style="fill: none; stroke: #454545"/>
   </g>
   <g id="line2d_43">
    <path d="M 430.983472 229.683124 
L 459.739583 229.683124 
" clip-path="url(#p8512c0c8ec)" style="fill: none; stroke: #454545; stroke-linecap: square"/>
   </g>
   <g id="line2d_44">
    <path d="M 430.983472 27.023636 
L 459.739583 27.023636 
" clip-path="url(#p8512c0c8ec)" style="fill: none; stroke: #454545; stroke-linecap: square"/>
   </g>
   <g id="line2d_45">
    <g clip-path="url(#p8512c0c8ec)">
     <use xlink:href="#m09b4e4e447" x="445.361528" y="263.620546" style="fill-opacity: 0; stroke: #454545"/>
     <use xlink:href="#m09b4e4e447" x="445.361528" y="258.996371" style="fill-opacity: 0; stroke: #454545"/>
     <use xlink:href="#m09b4e4e447" x="445.361528" y="293.617367" style="fill-opacity: 0; stroke: #454545"/>
     <use xlink:href="#m09b4e4e447" x="445.361528" y="239.655257" style="fill-opacity: 0; stroke: #454545"/>
    </g>
   </g>
   <g id="patch_9">
    <path d="M 488.495694 115.063904 
L 546.007917 115.063904 
L 546.007917 39.39833 
L 488.495694 39.39833 
L 488.495694 115.063904 
z
" clip-path="url(#p8512c0c8ec)" style="fill: #2072d6; stroke: #454545; stroke-linejoin: miter"/>
   </g>
   <g id="line2d_46">
    <path d="M 517.251806 115.063904 
L 517.251806 218.424263 
" clip-path="url(#p8512c0c8ec)" style="fill: none; stroke: #454545"/>
   </g>
   <g id="line2d_47">
    <path d="M 517.251806 39.39833 
L 517.251806 27.023636 
" clip-path="url(#p8512c0c8ec)" style="fill: none; stroke: #454545"/>
   </g>
   <g id="line2d_48">
    <path d="M 502.87375 218.424263 
L 531.629861 218.424263 
" clip-path="url(#p8512c0c8ec)" style="fill: none; stroke: #454545; stroke-linecap: square"/>
   </g>
   <g id="line2d_49">
    <path d="M 502.87375 27.023636 
L 531.629861 27.023636 
" clip-path="url(#p8512c0c8ec)" style="fill: none; stroke: #454545; stroke-linecap: square"/>
   </g>
   <g id="line2d_50">
    <g clip-path="url(#p8512c0c8ec)">
     <use xlink:href="#m09b4e4e447" x="517.251806" y="262.414239" style="fill-opacity: 0; stroke: #454545"/>
     <use xlink:href="#m09b4e4e447" x="517.251806" y="245.405318" style="fill-opacity: 0; stroke: #454545"/>
     <use xlink:href="#m09b4e4e447" x="517.251806" y="316.5774" style="fill-opacity: 0; stroke: #454545"/>
     <use xlink:href="#m09b4e4e447" x="517.251806" y="390.845668" style="fill-opacity: 0; stroke: #454545"/>
     <use xlink:href="#m09b4e4e447" x="517.251806" y="233.985617" style="fill-opacity: 0; stroke: #454545"/>
    </g>
   </g>
   <g id="patch_10">
    <path d="M 560.385972 117.084467 
L 617.898194 117.084467 
L 617.898194 43.851612 
L 560.385972 43.851612 
L 560.385972 117.084467 
z
" clip-path="url(#p8512c0c8ec)" style="fill: #1d6bc8; stroke: #454545; stroke-linejoin: miter"/>
   </g>
   <g id="line2d_51">
    <path d="M 589.142083 117.084467 
L 589.142083 224.053694 
" clip-path="url(#p8512c0c8ec)" style="fill: none; stroke: #454545"/>
   </g>
   <g id="line2d_52">
    <path d="M 589.142083 43.851612 
L 589.142083 27.023636 
" clip-path="url(#p8512c0c8ec)" style="fill: none; stroke: #454545"/>
   </g>
   <g id="line2d_53">
    <path d="M 574.764028 224.053694 
L 603.520139 224.053694 
" clip-path="url(#p8512c0c8ec)" style="fill: none; stroke: #454545; stroke-linecap: square"/>
   </g>
   <g id="line2d_54">
    <path d="M 574.764028 27.023636 
L 603.520139 27.023636 
" clip-path="url(#p8512c0c8ec)" style="fill: none; stroke: #454545; stroke-linecap: square"/>
   </g>
   <g id="line2d_55">
    <g clip-path="url(#p8512c0c8ec)">
     <use xlink:href="#m09b4e4e447" x="589.142083" y="236.961173" style="fill-opacity: 0; stroke: #454545"/>
     <use xlink:href="#m09b4e4e447" x="589.142083" y="305.47938" style="fill-opacity: 0; stroke: #454545"/>
    </g>
   </g>
   <g id="line2d_56">
    <path d="M 57.154028 98.47719 
L 114.66625 98.47719 
" clip-path="url(#p8512c0c8ec)" style="fill: none; stroke: #454545"/>
   </g>
   <g id="line2d_57">
    <path d="M 129.044306 88.645792 
L 186.556528 88.645792 
" clip-path="url(#p8512c0c8ec)" style="fill: none; stroke: #454545"/>
   </g>
   <g id="line2d_58">
    <path d="M 200.934583 77.266301 
L 258.446806 77.266301 
" clip-path="url(#p8512c0c8ec)" style="fill: none; stroke: #454545"/>
   </g>
   <g id="line2d_59">
    <path d="M 272.824861 75.416631 
L 330.337083 75.416631 
" clip-path="url(#p8512c0c8ec)" style="fill: none; stroke: #454545"/>
   </g>
   <g id="line2d_60">
    <path d="M 344.715139 78.150926 
L 402.227361 78.150926 
" clip-path="url(#p8512c0c8ec)" style="fill: none; stroke: #454545"/>
   </g>
   <g id="line2d_61">
    <path d="M 416.605417 72.601916 
L 474.117639 72.601916 
" clip-path="url(#p8512c0c8ec)" style="fill: none; stroke: #454545"/>
   </g>
   <g id="line2d_62">
    <path d="M 488.495694 67.233852 
L 546.007917 67.233852 
" clip-path="url(#p8512c0c8ec)" style="fill: none; stroke: #454545"/>
   </g>
   <g id="line2d_63">
    <path d="M 560.385972 72.561706 
L 617.898194 72.561706 
" clip-path="url(#p8512c0c8ec)" style="fill: none; stroke: #454545"/>
   </g>
   <g id="patch_11">
    <path d="M 49.965 443.32 
L 49.965 7.2 
" style="fill: none; stroke: #000000; stroke-width: 0.8; stroke-linejoin: miter; stroke-linecap: square"/>
   </g>
   <g id="patch_12">
    <path d="M 696.9775 443.32 
L 696.9775 7.2 
" style="fill: none; stroke: #000000; stroke-width: 0.8; stroke-linejoin: miter; stroke-linecap: square"/>
   </g>
   <g id="patch_13">
    <path d="M 49.965 443.32 
L 696.9775 443.32 
" style="fill: none; stroke: #000000; stroke-width: 0.8; stroke-linejoin: miter; stroke-linecap: square"/>
   </g>
   <g id="patch_14">
    <path d="M 49.965 7.2 
L 696.9775 7.2 
" style="fill: none; stroke: #000000; stroke-width: 0.8; stroke-linejoin: miter; stroke-linecap: square"/>
   </g>
   <g id="PathCollection_1">
    <defs>
     <path id="m29ed0eaaa7" d="M 0 2.5 
C 0.663008 2.5 1.29895 2.236584 1.767767 1.767767 
C 2.236584 1.29895 2.5 0.663008 2.5 0 
C 2.5 -0.663008 2.236584 -1.29895 1.767767 -1.767767 
C 1.29895 -2.236584 0.663008 -2.5 0 -2.5 
C -0.663008 -2.5 -1.29895 -2.236584 -1.767767 -1.767767 
C -2.236584 -1.29895 -2.5 -0.663008 -2.5 0 
C -2.5 0.663008 -2.236584 1.29895 -1.767767 1.767767 
C -1.29895 2.236584 -0.663008 2.5 0 2.5 
z
"/>
    </defs>
    <g clip-path="url(#p8512c0c8ec)">
     <use xlink:href="#m29ed0eaaa7" x="671.423632" y="61.20232" style="fill: #0168e4"/>
     <use xlink:href="#m29ed0eaaa7" x="657.74753" y="94.174697" style="fill: #0168e4"/>
     <use xlink:href="#m29ed0eaaa7" x="655.782531" y="110.258783" style="fill: #0168e4"/>
     <use xlink:href="#m29ed0eaaa7" x="646.172598" y="116.813048" style="fill: #0168e4"/>
     <use xlink:href="#m29ed0eaaa7" x="661.032361" y="120.83407" style="fill: #0168e4"/>
     <use xlink:href="#m29ed0eaaa7" x="670.533131" y="100.125809" style="fill: #0168e4"/>
     <use xlink:href="#m29ed0eaaa7" x="677.994293" y="29.717721" style="fill: #0168e4"/>
     <use xlink:href="#m29ed0eaaa7" x="658.666096" y="67.233852" style="fill: #0168e4"/>
     <use xlink:href="#m29ed0eaaa7" x="653.416096" y="67.233852" style="fill: #0168e4"/>
     <use xlink:href="#m29ed0eaaa7" x="670.4255" y="67.233852" style="fill: #0168e4"/>
     <use xlink:href="#m29ed0eaaa7" x="649.319758" y="27.023636" style="fill: #0168e4"/>
     <use xlink:href="#m29ed0eaaa7" x="663.398626" y="57.864872" style="fill: #0168e4"/>
     <use xlink:href="#m29ed0eaaa7" x="671.364149" y="35.18631" style="fill: #0168e4"/>
     <use xlink:href="#m29ed0eaaa7" x="681.453546" y="106.076921" style="fill: #0168e4"/>
     <use xlink:href="#m29ed0eaaa7" x="645.589894" y="108.248272" style="fill: #0168e4"/>
     <use xlink:href="#m29ed0eaaa7" x="682.417013" y="27.023636" style="fill: #0168e4"/>
     <use xlink:href="#m29ed0eaaa7" x="651.033129" y="118.702928" style="fill: #0168e4"/>
     <use xlink:href="#m29ed0eaaa7" x="656.033517" y="102.659052" style="fill: #0168e4"/>
     <use xlink:href="#m29ed0eaaa7" x="650.678069" y="88.866948" style="fill: #0168e4"/>
     <use xlink:href="#m29ed0eaaa7" x="655.917193" y="89.18863" style="fill: #0168e4"/>
     <use xlink:href="#m29ed0eaaa7" x="661.032361" y="127.991488" style="fill: #0168e4"/>
     <use xlink:href="#m29ed0eaaa7" x="658.666096" y="42.66541" style="fill: #0168e4"/>
     <use xlink:href="#m29ed0eaaa7" x="661.032361" y="110.298993" style="fill: #0168e4"/>
     <use xlink:href="#m29ed0eaaa7" x="650.826124" y="108.610164" style="fill: #0168e4"/>
     <use xlink:href="#m29ed0eaaa7" x="667.485846" y="133.299237" style="fill: #0168e4"/>
     <use xlink:href="#m29ed0eaaa7" x="661.032361" y="207.969607" style="fill: #0168e4"/>
     <use xlink:href="#m29ed0eaaa7" x="666.268592" y="89.952624" style="fill: #0168e4"/>
     <use xlink:href="#m29ed0eaaa7" x="666.14753" y="35.749253" style="fill: #0168e4"/>
     <use xlink:href="#m29ed0eaaa7" x="666.17516" y="51.149766" style="fill: #0168e4"/>
     <use xlink:href="#m29ed0eaaa7" x="676.449739" y="49.099045" style="fill: #0168e4"/>
     <use xlink:href="#m29ed0eaaa7" x="643.309724" y="29.355829" style="fill: #0168e4"/>
     <use xlink:href="#m29ed0eaaa7" x="661.032361" y="171.418521" style="fill: #0168e4"/>
     <use xlink:href="#m29ed0eaaa7" x="661.032361" y="236.961173" style="fill: #0168e4"/>
     <use xlink:href="#m29ed0eaaa7" x="665.87544" y="118.903979" style="fill: #0168e4"/>
     <use xlink:href="#m29ed0eaaa7" x="656.134905" y="141.019598" style="fill: #0168e4"/>
     <use xlink:href="#m29ed0eaaa7" x="670.401741" y="166.955187" style="fill: #0168e4"/>
     <use xlink:href="#m29ed0eaaa7" x="676.403613" y="107.444068" style="fill: #0168e4"/>
     <use xlink:href="#m29ed0eaaa7" x="635.763256" y="57.382349" style="fill: #0168e4"/>
     <use xlink:href="#m29ed0eaaa7" x="665.015692" y="43.871717" style="fill: #0168e4"/>
     <use xlink:href="#m29ed0eaaa7" x="661.3679" y="141.4217" style="fill: #0168e4"/>
     <use xlink:href="#m29ed0eaaa7" x="661.032361" y="36.875139" style="fill: #0168e4"/>
     <use xlink:href="#m29ed0eaaa7" x="641.012577" y="57.46277" style="fill: #0168e4"/>
     <use xlink:href="#m29ed0eaaa7" x="661.032361" y="98.075088" style="fill: #0168e4"/>
     <use xlink:href="#m29ed0eaaa7" x="667.593009" y="30.682766" style="fill: #0168e4"/>
     <use xlink:href="#m29ed0eaaa7" x="632.27625" y="46.927693" style="fill: #0168e4"/>
     <use xlink:href="#m29ed0eaaa7" x="638.665817" y="27.023636" style="fill: #0168e4"/>
     <use xlink:href="#m29ed0eaaa7" x="665.653758" y="125.619085" style="fill: #0168e4"/>
     <use xlink:href="#m29ed0eaaa7" x="656.283129" y="169.28738" style="fill: #0168e4"/>
     <use xlink:href="#m29ed0eaaa7" x="664.56431" y="220.354354" style="fill: #0168e4"/>
     <use xlink:href="#m29ed0eaaa7" x="648.1906" y="66.75133" style="fill: #0168e4"/>
     <use xlink:href="#m29ed0eaaa7" x="661.032361" y="77.889559" style="fill: #0168e4"/>
     <use xlink:href="#m29ed0eaaa7" x="689.788472" y="27.023636" style="fill: #0168e4"/>
     <use xlink:href="#m29ed0eaaa7" x="662.555268" y="32.090124" style="fill: #0168e4"/>
     <use xlink:href="#m29ed0eaaa7" x="632.27625" y="27.023636" style="fill: #0168e4"/>
     <use xlink:href="#m29ed0eaaa7" x="689.788472" y="27.023636" style="fill: #0168e4"/>
     <use xlink:href="#m29ed0eaaa7" x="655.802944" y="127.549176" style="fill: #0168e4"/>
     <use xlink:href="#m29ed0eaaa7" x="654.679767" y="46.28433" style="fill: #0168e4"/>
     <use xlink:href="#m29ed0eaaa7" x="661.032361" y="201.616393" style="fill: #0168e4"/>
     <use xlink:href="#m29ed0eaaa7" x="661.032361" y="150.348368" style="fill: #0168e4"/>
     <use xlink:href="#m29ed0eaaa7" x="640.602462" y="39.609434" style="fill: #0168e4"/>
     <use xlink:href="#m29ed0eaaa7" x="661.032361" y="224.053694" style="fill: #0168e4"/>
     <use xlink:href="#m29ed0eaaa7" x="632.27625" y="27.023636" style="fill: #0168e4"/>
     <use xlink:href="#m29ed0eaaa7" x="661.032361" y="52.155021" style="fill: #0168e4"/>
     <use xlink:href="#m29ed0eaaa7" x="661.032361" y="176.927321" style="fill: #0168e4"/>
     <use xlink:href="#m29ed0eaaa7" x="645.268388" y="41.901416" style="fill: #0168e4"/>
     <use xlink:href="#m29ed0eaaa7" x="675.848458" y="73.506646" style="fill: #0168e4"/>
     <use xlink:href="#m29ed0eaaa7" x="664.30916" y="137.280048" style="fill: #0168e4"/>
     <use xlink:href="#m29ed0eaaa7" x="665.781593" y="95.943946" style="fill: #0168e4"/>
     <use xlink:href="#m29ed0eaaa7" x="645.729225" y="49.380516" style="fill: #0168e4"/>
     <use xlink:href="#m29ed0eaaa7" x="670.631839" y="74.069589" style="fill: #0168e4"/>
     <use xlink:href="#m29ed0eaaa7" x="659.540263" y="135.189117" style="fill: #0168e4"/>
     <use xlink:href="#m29ed0eaaa7" x="666.105538" y="76.602832" style="fill: #0168e4"/>
     <use xlink:href="#m29ed0eaaa7" x="664.56431" y="181.672126" style="fill: #0168e4"/>
     <use xlink:href="#m29ed0eaaa7" x="666.057524" y="102.739473" style="fill: #0168e4"/>
     <use xlink:href="#m29ed0eaaa7" x="656.020163" y="183.883688" style="fill: #0168e4"/>
     <use xlink:href="#m29ed0eaaa7" x="640.490102" y="49.058835" style="fill: #0168e4"/>
     <use xlink:href="#m29ed0eaaa7" x="650.639562" y="51.149766" style="fill: #0168e4"/>
     <use xlink:href="#m29ed0eaaa7" x="665.781593" y="69.566045" style="fill: #0168e4"/>
     <use xlink:href="#m29ed0eaaa7" x="635.384875" y="47.892738" style="fill: #0168e4"/>
     <use xlink:href="#m29ed0eaaa7" x="675.508898" y="43.550035" style="fill: #0168e4"/>
     <use xlink:href="#m29ed0eaaa7" x="655.889562" y="51.149766" style="fill: #0168e4"/>
     <use xlink:href="#m29ed0eaaa7" x="655.820699" y="77.286406" style="fill: #0168e4"/>
     <use xlink:href="#m29ed0eaaa7" x="661.032361" y="90.314516" style="fill: #0168e4"/>
     <use xlink:href="#m29ed0eaaa7" x="670.624672" y="94.013856" style="fill: #0168e4"/>
     <use xlink:href="#m29ed0eaaa7" x="661.032361" y="305.47938" style="fill: #0168e4"/>
     <use xlink:href="#m29ed0eaaa7" x="652.499059" y="94.054066" style="fill: #0168e4"/>
     <use xlink:href="#m29ed0eaaa7" x="655.820699" y="201.01324" style="fill: #0168e4"/>
     <use xlink:href="#m29ed0eaaa7" x="671.33457" y="50.224931" style="fill: #0168e4"/>
     <use xlink:href="#m29ed0eaaa7" x="661.032361" y="62.328206" style="fill: #0168e4"/>
     <use xlink:href="#m29ed0eaaa7" x="632.27625" y="27.023636" style="fill: #0168e4"/>
     <use xlink:href="#m29ed0eaaa7" x="656.943691" y="33.738742" style="fill: #0168e4"/>
     <use xlink:href="#m29ed0eaaa7" x="667.039111" y="85.006767" style="fill: #0168e4"/>
     <use xlink:href="#m29ed0eaaa7" x="645.538878" y="59.996013" style="fill: #0168e4"/>
     <use xlink:href="#m29ed0eaaa7" x="640.764699" y="106.277972" style="fill: #0168e4"/>
     <use xlink:href="#m29ed0eaaa7" x="655.970616" y="222.726756" style="fill: #0168e4"/>
     <use xlink:href="#m29ed0eaaa7" x="646.232654" y="73.426225" style="fill: #0168e4"/>
     <use xlink:href="#m29ed0eaaa7" x="661.032361" y="185.371466" style="fill: #0168e4"/>
     <use xlink:href="#m29ed0eaaa7" x="650.758955" y="75.959469" style="fill: #0168e4"/>
     <use xlink:href="#m29ed0eaaa7" x="665.558662" y="168.885278" style="fill: #0168e4"/>
     <use xlink:href="#m29ed0eaaa7" x="661.032361" y="85.087188" style="fill: #0168e4"/>
     <use xlink:href="#m29ed0eaaa7" x="681.696216" y="59.191809" style="fill: #0168e4"/>
     <use xlink:href="#m29ed0eaaa7" x="686.733005" y="47.128744" style="fill: #0168e4"/>
     <use xlink:href="#m29ed0eaaa7" x="666.280833" y="62.207575" style="fill: #0168e4"/>
     <use xlink:href="#m29ed0eaaa7" x="671.018239" y="117.898724" style="fill: #0168e4"/>
     <use xlink:href="#m29ed0eaaa7" x="653.65886" y="29.838351" style="fill: #0168e4"/>
     <use xlink:href="#m29ed0eaaa7" x="681.638089" y="48.335051" style="fill: #0168e4"/>
     <use xlink:href="#m29ed0eaaa7" x="650.128918" y="43.791296" style="fill: #0168e4"/>
     <use xlink:href="#m29ed0eaaa7" x="654.446968" y="39.689854" style="fill: #0168e4"/>
     <use xlink:href="#m29ed0eaaa7" x="651.270281" y="35.709043" style="fill: #0168e4"/>
     <use xlink:href="#m29ed0eaaa7" x="676.611983" y="60.438326" style="fill: #0168e4"/>
     <use xlink:href="#m29ed0eaaa7" x="670.265013" y="43.791296" style="fill: #0168e4"/>
     <use xlink:href="#m29ed0eaaa7" x="672.744293" y="29.717721" style="fill: #0168e4"/>
     <use xlink:href="#m29ed0eaaa7" x="661.032361" y="47.128744" style="fill: #0168e4"/>
     <use xlink:href="#m29ed0eaaa7" x="655.881077" y="61.363161" style="fill: #0168e4"/>
     <use xlink:href="#m29ed0eaaa7" x="633.415817" y="27.023636" style="fill: #0168e4"/>
     <use xlink:href="#m29ed0eaaa7" x="647.785331" y="31.969493" style="fill: #0168e4"/>
     <use xlink:href="#m29ed0eaaa7" x="687.667013" y="27.023636" style="fill: #0168e4"/>
     <use xlink:href="#m29ed0eaaa7" x="689.788472" y="27.023636" style="fill: #0168e4"/>
     <use xlink:href="#m29ed0eaaa7" x="680.107287" y="41.137422" style="fill: #0168e4"/>
     <use xlink:href="#m29ed0eaaa7" x="661.032361" y="104.18704" style="fill: #0168e4"/>
     <use xlink:href="#m29ed0eaaa7" x="654.388979" y="134.224072" style="fill: #0168e4"/>
     <use xlink:href="#m29ed0eaaa7" x="666.276246" y="110.057732" style="fill: #0168e4"/>
     <use xlink:href="#m29ed0eaaa7" x="659.614009" y="27.948471" style="fill: #0168e4"/>
     <use xlink:href="#m29ed0eaaa7" x="661.032361" y="71.697186" style="fill: #0168e4"/>
     <use xlink:href="#m29ed0eaaa7" x="658.841331" y="145.804614" style="fill: #0168e4"/>
     <use xlink:href="#m29ed0eaaa7" x="655.782361" y="120.83407" style="fill: #0168e4"/>
     <use xlink:href="#m29ed0eaaa7" x="671.288444" y="108.569954" style="fill: #0168e4"/>
     <use xlink:href="#m29ed0eaaa7" x="650.633794" y="61.20232" style="fill: #0168e4"/>
    </g>
   </g>
  </g>
 </g>
 <defs>
  <clipPath id="p8512c0c8ec">
   <rect x="49.965" y="7.2" width="647.0125" height="436.12"/>
  </clipPath>
 </defs>
</svg>
