<?xml version="1.0" encoding="utf-8" standalone="no"?>
<!DOCTYPE svg PUBLIC "-//W3C//DTD SVG 1.1//EN"
  "http://www.w3.org/Graphics/SVG/1.1/DTD/svg11.dtd">
<svg xmlns:xlink="http://www.w3.org/1999/xlink" width="572.4pt" height="291.6pt" viewBox="0 0 572.4 291.6" xmlns="http://www.w3.org/2000/svg" version="1.1">
 <metadata>
  <rdf:RDF xmlns:dc="http://purl.org/dc/elements/1.1/" xmlns:cc="http://creativecommons.org/ns#" xmlns:rdf="http://www.w3.org/1999/02/22-rdf-syntax-ns#">
   <cc:Work>
    <dc:type rdf:resource="http://purl.org/dc/dcmitype/StillImage"/>
    <dc:date>2024-04-30T17:56:45.161821</dc:date>
    <dc:format>image/svg+xml</dc:format>
    <dc:creator>
     <cc:Agent>
      <dc:title>Matplotlib v3.7.5, https://matplotlib.org/</dc:title>
     </cc:Agent>
    </dc:creator>
   </cc:Work>
  </rdf:RDF>
 </metadata>
 <defs>
  <style type="text/css">*{stroke-linejoin: round; stroke-linecap: butt}</style>
 </defs>
 <g id="figure_1">
  <g id="patch_1">
   <path d="M 0 291.6 
L 572.4 291.6 
L 572.4 0 
L 0 0 
z
" style="fill: #ffffff"/>
  </g>
  <g id="axes_1">
   <g id="line2d_1">
    <path d="M 32.563636 21.430217 
L 36.967045 33.526511 
L 37.847727 34.262183 
L 38.728409 34.244565 
L 40.489773 38.74936 
L 44.0125 48.086926 
L 44.893182 50.349927 
L 45.773864 50.569629 
L 46.654545 50.581958 
L 58.103409 81.469162 
L 59.864773 85.984175 
L 66.029545 102.402778 
L 67.790909 106.872082 
L 74.836364 125.760377 
L 76.597727 129.879245 
L 87.165909 158.082176 
L 88.927273 161.843165 
L 95.972727 180.393718 
L 96.853409 182.397274 
L 97.734091 183.999404 
L 98.614773 182.531632 
L 99.495455 179.500482 
L 100.376136 181.194587 
L 107.421591 199.092065 
L 108.302273 200.3361 
L 109.182955 201.832461 
L 110.063636 204.000746 
L 110.944318 205.60406 
L 111.825 206.649295 
L 112.705682 208.465525 
L 113.586364 210.562409 
L 115.347727 212.218904 
L 116.228409 212.865545 
L 117.109091 214.057087 
L 117.989773 215.990959 
L 118.870455 216.91262 
L 119.751136 217.297285 
L 121.5125 211.569393 
L 124.154545 216.931888 
L 125.035227 217.684196 
L 125.915909 217.684196 
L 126.796591 218.985477 
L 129.438636 223.713892 
L 132.080682 228.125473 
L 132.961364 228.056384 
L 133.842045 227.412692 
L 138.245455 233.14532 
L 139.126136 232.728687 
L 140.006818 231.490059 
L 140.8875 229.382644 
L 141.768182 227.703642 
L 142.648864 230.777279 
L 143.529545 232.301839 
L 144.410227 230.742456 
L 145.290909 231.719872 
L 146.171591 234.655038 
L 147.052273 235.676093 
L 148.813636 236.612201 
L 149.694318 236.388437 
L 150.575 234.300476 
L 151.455682 233.307194 
L 152.336364 233.477886 
L 153.217045 235.280133 
L 154.097727 237.733602 
L 154.978409 235.551072 
L 155.859091 233.913769 
L 156.739773 236.128187 
L 157.620455 237.325651 
L 159.381818 236.657804 
L 160.2625 236.244828 
L 162.023864 230.860368 
L 162.904545 227.945152 
L 163.785227 226.498009 
L 164.665909 228.097789 
L 165.546591 228.361935 
L 167.307955 226.677155 
L 169.069318 224.789314 
L 169.95 223.257645 
L 170.830682 220.052783 
L 171.711364 217.843952 
L 174.353409 214.38829 
L 175.234091 213.13956 
L 176.114773 212.201052 
L 177.876136 213.422877 
L 178.756818 213.888934 
L 179.6375 213.109125 
L 183.160227 206.804696 
L 186.682955 200.079141 
L 191.086364 191.163757 
L 194.609091 183.705615 
L 196.370455 177.540149 
L 197.251136 177.051183 
L 198.131818 175.993056 
L 199.0125 174.031498 
L 199.893182 172.861613 
L 200.773864 172.184063 
L 202.535227 168.322734 
L 203.415909 166.270732 
L 204.296591 164.573025 
L 205.177273 163.676027 
L 206.057955 161.51255 
L 206.938636 158.256282 
L 207.819318 158.375449 
L 208.7 159.520748 
L 209.580682 158.47453 
L 210.461364 156.93216 
L 211.342045 153.723154 
L 212.222727 150.998507 
L 213.103409 148.849239 
L 213.984091 150.373418 
L 214.864773 153.570327 
L 215.745455 152.737811 
L 216.626136 151.393048 
L 217.506818 149.188877 
L 218.3875 147.315328 
L 219.268182 145.987439 
L 220.148864 144.105371 
L 221.029545 141.865047 
L 222.790909 138.784246 
L 224.552273 134.45481 
L 225.432955 132.896481 
L 226.313636 130.948904 
L 227.194318 128.652814 
L 228.955682 125.180558 
L 230.717045 120.677574 
L 231.597727 118.926694 
L 232.478409 116.91437 
L 239.523864 98.200116 
L 241.285227 92.697793 
L 242.165909 92.628446 
L 243.046591 92.996819 
L 244.807955 89.082228 
L 262.421591 42.094741 
L 264.182955 37.991736 
L 265.063636 36.571667 
L 265.944318 36.838258 
L 266.825 35.871442 
L 267.705682 33.715813 
L 268.586364 33.296578 
L 269.467045 33.489777 
L 272.109091 26.815444 
L 272.989773 25.555414 
L 273.870455 25.640948 
L 274.751136 27.28424 
L 276.5125 32.149306 
L 277.393182 33.985579 
L 280.035227 26.767931 
L 280.915909 27.11995 
L 281.796591 29.464061 
L 282.677273 27.900736 
L 283.557955 25.513911 
L 287.080682 24.940918 
L 289.722727 24.319216 
L 292.364773 30.551444 
L 294.126136 35.132776 
L 299.410227 49.255833 
L 302.932955 57.505467 
L 311.739773 80.970675 
L 313.501136 84.88855 
L 320.546591 103.577314 
L 322.307955 107.311533 
L 324.069318 110.55833 
L 324.95 107.575928 
L 325.830682 105.919571 
L 330.234091 117.344303 
L 331.995455 120.511615 
L 343.444318 149.540463 
L 352.251136 171.297016 
L 353.131818 173.43359 
L 354.0125 175.996358 
L 354.893182 179.218393 
L 355.773864 181.764219 
L 362.819318 198.569785 
L 368.984091 212.635611 
L 373.3875 222.16975 
L 376.910227 229.398231 
L 380.432955 236.157496 
L 381.313636 237.760361 
L 382.194318 240.311656 
L 383.075 243.691468 
L 383.955682 244.589181 
L 384.836364 244.719339 
L 386.597727 251.089813 
L 389.239773 255.946522 
L 391.881818 260.342583 
L 393.643182 262.980179 
L 395.404545 265.342337 
L 397.165909 267.394671 
L 398.927273 269.09148 
L 400.688636 270.378863 
L 402.45 271.255225 
L 403.330682 271.552223 
L 405.092045 271.8 
L 406.853409 271.561333 
L 408.614773 270.882217 
L 409.495455 270.393848 
L 410.376136 268.242372 
L 411.256818 265.289588 
L 412.1375 264.299857 
L 413.898864 262.562945 
L 415.660227 260.508114 
L 417.421591 258.164958 
L 420.063636 254.143763 
L 422.705682 249.651027 
L 425.347727 244.760887 
L 428.870455 237.708025 
L 429.751136 235.872121 
L 430.631818 234.950208 
L 431.5125 234.487401 
L 433.273864 230.688465 
L 438.557955 218.403287 
L 444.722727 203.481954 
L 448.245455 194.749162 
L 449.126136 192.143153 
L 450.006818 188.986068 
L 450.8875 187.237586 
L 451.768182 186.226318 
L 453.529545 180.183408 
L 454.410227 178.033006 
L 455.290909 175.515941 
L 456.171591 172.307734 
L 457.052273 171.532515 
L 457.932955 172.543211 
L 458.813636 171.037197 
L 465.859091 153.92792 
L 475.546591 129.764313 
L 482.592045 111.860199 
L 483.472727 111.094364 
L 484.353409 111.888137 
L 485.234091 114.287933 
L 486.114773 117.319157 
L 486.995455 115.985055 
L 488.756818 112.747464 
L 489.6375 110.826347 
L 490.518182 108.511623 
L 493.160227 102.57605 
L 503.728409 74.732251 
L 504.609091 72.852421 
L 507.251136 65.924183 
L 515.177273 44.687682 
L 516.057955 43.956373 
L 518.7 52.167438 
L 519.580682 51.166318 
L 520.461364 49.106131 
L 528.3875 27.646437 
L 530.148864 22.532149 
L 531.029545 20.439862 
L 531.910227 19.8 
L 534.552273 20.491025 
L 537.194318 21.002391 
L 538.075 22.428448 
L 538.955682 24.940715 
L 539.836364 24.940715 
L 539.836364 24.940715 
" clip-path="url(#paa60122b6b)" style="fill: none; stroke: #ff0000; stroke-width: 4; stroke-linecap: square"/>
   </g>
  </g>
 </g>
 <defs>
  <clipPath id="paa60122b6b">
   <rect x="7.2" y="7.2" width="558" height="277.2"/>
  </clipPath>
 </defs>
</svg>
